<svg width="40" height="40" viewBox="0 0 40 40" fill="none" xmlns="http://www.w3.org/2000/svg">
<circle cx="20" cy="20" r="20" fill="#409EFF"/>
<path d="M9.55 25.378C8.57933 25.378 7.72533 25.1447 6.988 24.678C6.25067 24.2113 5.69067 23.5767 5.308 22.774L7.128 21.878C7.352 22.3913 7.674 22.7833 8.094 23.054C8.52333 23.3153 9.01333 23.446 9.564 23.446C10.152 23.446 10.628 23.3247 10.992 23.082C11.356 22.8393 11.538 22.5267 11.538 22.144C11.538 21.8827 11.468 21.6633 11.328 21.486C11.188 21.3087 10.9547 21.1453 10.628 20.996C10.3107 20.8467 9.858 20.6927 9.27 20.534C8.53267 20.3193 7.92133 20.1093 7.436 19.904C6.96 19.6893 6.54 19.3627 6.176 18.924C5.82133 18.4853 5.644 17.9113 5.644 17.202C5.644 16.5673 5.81667 16.0027 6.162 15.508C6.51667 15.004 7.002 14.612 7.618 14.332C8.234 14.0427 8.92 13.898 9.676 13.898C11.524 13.898 12.8633 14.71 13.694 16.334L11.902 17.258C11.3793 16.306 10.628 15.83 9.648 15.83C9.12533 15.83 8.68667 15.9513 8.332 16.194C7.98667 16.4367 7.814 16.7307 7.814 17.076C7.814 17.3747 7.88867 17.6173 8.038 17.804C8.19667 17.9907 8.43 18.1493 8.738 18.28C9.05533 18.4107 9.50333 18.5553 10.082 18.714C10.7913 18.9007 11.3933 19.106 11.888 19.33C12.3827 19.5447 12.8073 19.8713 13.162 20.31C13.5167 20.7487 13.694 21.3227 13.694 22.032C13.694 22.704 13.5167 23.292 13.162 23.796C12.8167 24.3 12.3313 24.692 11.706 24.972C11.0807 25.2427 10.362 25.378 9.55 25.378ZM24.1122 22.9C23.7109 23.684 23.1555 24.2953 22.4462 24.734C21.7369 25.1633 20.9295 25.378 20.0242 25.378C19.0255 25.378 18.1389 25.1353 17.3642 24.65C16.5895 24.1553 15.9829 23.4693 15.5442 22.592C15.1149 21.7147 14.9002 20.7113 14.9002 19.582C14.9002 18.4713 15.1149 17.4867 15.5442 16.628C15.9829 15.7693 16.5942 15.102 17.3782 14.626C18.1715 14.1407 19.0815 13.898 20.1082 13.898C21.0322 13.898 21.8302 14.1173 22.5022 14.556C23.1742 14.9947 23.7062 15.6013 24.0982 16.376L22.2642 17.258C22.0402 16.8193 21.7275 16.4787 21.3262 16.236C20.9342 15.9933 20.4955 15.872 20.0102 15.872C19.4409 15.872 18.9322 16.0307 18.4842 16.348C18.0455 16.656 17.7002 17.0947 17.4482 17.664C17.2055 18.224 17.0842 18.8633 17.0842 19.582C17.0842 20.3193 17.2055 20.9773 17.4482 21.556C17.7002 22.1347 18.0455 22.5873 18.4842 22.914C18.9322 23.2313 19.4409 23.39 20.0102 23.39C20.4769 23.39 20.9062 23.2687 21.2982 23.026C21.6902 22.7833 22.0169 22.4427 22.2782 22.004L24.1122 22.9ZM29.9105 23.39C30.5825 23.39 31.1145 23.166 31.5065 22.718C31.8985 22.2607 32.0945 21.6447 32.0945 20.87V14.094H34.2225V20.968C34.2225 21.8733 34.0452 22.6573 33.6905 23.32C33.3452 23.9827 32.8458 24.4913 32.1925 24.846C31.5485 25.2007 30.7878 25.378 29.9105 25.378C29.0332 25.378 28.2725 25.2007 27.6285 24.846C26.9845 24.4913 26.4852 23.9827 26.1305 23.32C25.7852 22.6573 25.6125 21.8733 25.6125 20.968V14.094H27.7265V20.814C27.7265 21.6073 27.9225 22.2373 28.3145 22.704C28.7065 23.1613 29.2385 23.39 29.9105 23.39Z" fill="white"/>
</svg>
