<svg width="139" height="33" viewBox="0 0 139 33" fill="none" xmlns="http://www.w3.org/2000/svg">
<g clip-path="url(#clip0_187_706)">
<path d="M7.29044 15.9278C6.39132 15.9842 5.4899 15.863 4.63765 15.571C3.7854 15.279 2.999 14.822 2.32336 14.2261C0.958848 13.0226 0.128303 11.3264 0.0144362 9.51051C-0.09943 7.69466 0.512711 5.90795 1.71619 4.54343C2.91968 3.17892 4.61592 2.34837 6.43177 2.23451C8.24762 2.12064 10.0343 2.73278 11.3988 3.93626C12.7634 5.13975 13.5939 6.83599 13.7078 8.65184C13.8216 10.4677 13.2095 12.2544 12.006 13.6189C10.8025 14.9834 9.10629 15.814 7.29044 15.9278V15.9278ZM31.0784 12.5118L21.9331 28.3545C21.0225 29.9302 19.5233 31.0797 17.7652 31.5501C16.0071 32.0204 14.1342 31.7731 12.5584 30.8625C10.9827 29.9519 9.83322 28.4527 9.36288 26.6946C8.89254 24.9365 9.13986 23.0636 10.0504 21.4878L19.1971 5.65051C20.1072 4.07427 21.606 2.92401 23.364 2.45269C25.122 1.98137 26.9953 2.22758 28.5718 3.13717C29.3521 3.58798 30.0359 4.18808 30.5843 4.90321C31.1326 5.61833 31.5347 6.43447 31.7676 7.30501C32.0005 8.17555 32.0596 9.08345 31.9416 9.97684C31.8236 10.8702 31.5307 11.7316 31.0798 12.5118H31.0784Z" fill="#409EFF"/>
</g>
<text fill="#4F4F4F" xml:space="preserve" style="white-space: pre" font-family="MiSans" font-size="24" font-weight="bold" letter-spacing="0em"><tspan x="48" y="25.144">ADVEN</tspan></text>
<defs>
<clipPath id="clip0_187_706">
<rect width="32" height="32" fill="white" transform="matrix(1 0 0 -1 0 33)"/>
</clipPath>
</defs>
</svg>
